<?xml version="1.0" encoding="UTF-8"?>
<svg xmlns="http://www.w3.org/2000/svg" xmlns:xlink="http://www.w3.org/1999/xlink" viewBox="0 0 50 50" width="50px" height="50px">
<g id="surface15289046">
<path style="fill-rule:nonzero;fill:rgb(0%,0%,0%);fill-opacity:1;stroke-width:6;stroke-linecap:butt;stroke-linejoin:round;stroke:rgb(0%,0%,0%);stroke-opacity:1;stroke-miterlimit:10;" d="M 142.977223 29.245341 C 149.835077 27.743012 156.34517 25.308682 162.215382 21.817158 C 163.439502 21.079904 164.997473 21.191187 166.11031 22.067546 C 167.223146 22.957815 167.696101 24.446234 167.264877 25.795548 C 166.012936 29.760028 163.912458 33.279373 161.464218 36.54833 C 163.314308 35.922359 165.386966 35.838897 167.167504 35.046001 C 168.55855 34.392209 170.241715 34.753881 171.229357 35.93627 C 172.24482 37.118659 172.342194 38.815734 171.465835 40.095496 C 167.056221 46.702962 161.422486 52.364517 155.12105 57.191445 C 155.148871 58.151267 155.232334 59.111088 155.232334 60.098731 C 155.232334 83.343101 146.427015 108.228906 129.539723 127.383602 C 112.65243 146.55221 87.460596 159.961888 55.369176 159.961888 C 35.560688 159.961888 17.129334 154.119497 1.619177 144.159611 C 0.228131 143.311074 -0.370018 141.600088 0.17249 140.069937 C 0.714997 138.539787 2.259058 137.593876 3.872671 137.816444 C 6.362642 138.108563 8.880435 138.247668 11.4956 138.247668 C 23.611607 138.247668 34.823434 134.853517 44.50511 129.108499 C 32.361283 125.76999 22.554412 116.644731 18.701216 104.70956 C 18.353455 103.568903 18.617753 102.316962 19.410649 101.412783 C 20.189635 100.508603 21.385934 100.091289 22.568322 100.299946 C 22.679606 100.327767 22.79089 100.286036 22.902173 100.299946 C 13.220497 93.553375 6.668672 82.550205 6.668672 69.877781 L 6.668672 69.446556 C 6.682583 68.250257 7.308553 67.137421 8.337927 66.51145 C 9.381211 65.89939 10.660973 65.871569 11.718167 66.441898 C 12.552795 66.900943 13.512616 67.12351 14.402885 67.513003 C 9.840256 61.29503 6.877329 53.741653 6.877329 45.478842 C 6.877329 38.648809 8.72742 32.291731 11.926824 26.76928 C 12.497153 25.767727 13.512616 25.113936 14.667184 25.030473 C 15.821752 24.94701 16.920678 25.433876 17.630111 26.338056 C 32.903791 45.089349 55.396997 57.34446 80.839219 59.76488 C 80.714025 58.55467 80.407995 57.34446 80.407995 56.12034 C 80.407995 35.546777 97.142273 18.8125 117.715836 18.8125 C 127.536617 18.8125 136.314115 22.999547 142.977223 29.245341 Z M 87.29367 56.12034 C 87.29367 58.512939 87.627521 60.877716 88.156119 63.103389 C 88.392596 64.146673 88.128298 65.245599 87.418865 66.080226 C 86.723342 66.900943 85.680058 67.346078 84.608953 67.290436 C 57.400102 65.927211 33.321104 53.393891 16.127782 34.503493 C 14.778468 37.953286 13.763004 41.542183 13.763004 45.478842 C 13.763004 56.064699 19.13244 65.370793 27.311788 70.837602 C 28.633281 71.672229 29.231431 73.313663 28.744565 74.802082 C 28.257699 76.304411 26.838832 77.278143 25.266951 77.18077 C 21.413755 77.069486 17.866589 76.123575 14.402885 74.927276 C 16.531185 87.321491 25.712085 97.281377 37.953286 99.757438 C 39.483436 100.091289 40.596272 101.440603 40.651914 103.012485 C 40.707556 104.584366 39.664272 105.975412 38.161943 106.420546 C 35.03209 107.282995 31.66576 107.714219 28.271609 107.714219 C 28.090773 107.714219 27.923848 107.714219 27.729101 107.714219 C 32.806417 117.034224 42.307258 123.64169 53.644279 123.836436 C 55.077056 123.878168 56.342908 124.824079 56.801953 126.187303 C 57.260998 127.564438 56.815863 129.066767 55.689116 129.970947 C 44.880693 138.442414 31.498835 143.575372 16.99023 144.688209 C 28.688923 150.043734 41.639557 153.076213 55.369176 153.076213 C 85.568774 153.076213 108.66013 140.598535 124.378944 122.765331 C 140.097758 104.932128 148.346658 81.590384 148.346658 60.098731 C 148.346658 58.679864 148.291016 57.302729 148.249285 55.897773 C 148.165822 54.715384 148.680509 53.588638 149.640331 52.893115 C 153.145765 50.347501 156.372991 47.468037 159.308097 44.296453 C 156.03914 45.158902 152.97884 46.563858 149.529047 46.981171 C 147.831971 47.356754 146.107075 46.396932 145.536746 44.755499 C 144.966418 43.114065 145.703672 41.291795 147.275553 40.52672 C 150.739257 38.440152 153.702184 35.685882 156.094782 32.458656 C 151.935556 34.141821 147.678956 35.449404 143.185879 36.339673 C 142.017401 36.590061 140.793281 36.228389 139.958654 35.365941 C 134.408382 29.440087 126.493333 25.698175 117.715836 25.698175 C 100.856364 25.698175 87.29367 39.260869 87.29367 56.12034 Z M 87.29367 56.12034 " transform="matrix(0.280814,0,0,0.280814,0.85,0.85)"/>
<path style=" stroke:none;fill-rule:nonzero;fill:rgb(0%,0%,0%);fill-opacity:1;" d="M 33.90625 6.132812 C 28.128906 6.132812 23.429688 10.832031 23.429688 16.609375 C 23.429688 16.953125 23.515625 17.292969 23.550781 17.632812 C 16.40625 16.953125 10.089844 13.511719 5.800781 8.246094 C 5.601562 7.992188 5.292969 7.855469 4.96875 7.878906 C 4.644531 7.902344 4.359375 8.085938 4.199219 8.367188 C 3.300781 9.917969 2.78125 11.703125 2.78125 13.621094 C 2.78125 15.941406 3.613281 18.0625 4.894531 19.808594 C 4.644531 19.699219 4.375 19.636719 4.140625 19.507812 C 3.84375 19.347656 3.484375 19.355469 3.191406 19.527344 C 2.902344 19.703125 2.726562 20.015625 2.722656 20.351562 L 2.722656 20.472656 C 2.722656 24.03125 4.5625 27.121094 7.28125 29.015625 C 7.25 29.011719 7.21875 29.023438 7.1875 29.015625 C 6.855469 28.957031 6.519531 29.074219 6.300781 29.328125 C 6.078125 29.582031 6.003906 29.933594 6.101562 30.253906 C 7.183594 33.605469 9.9375 36.167969 13.347656 37.105469 C 10.628906 38.71875 7.480469 39.671875 4.078125 39.671875 C 3.34375 39.671875 2.636719 39.632812 1.9375 39.550781 C 1.484375 39.488281 1.050781 39.753906 0.898438 40.183594 C 0.746094 40.613281 0.914062 41.09375 1.304688 41.332031 C 5.660156 44.128906 10.835938 45.769531 16.398438 45.769531 C 25.410156 45.769531 32.484375 42.003906 37.226562 36.621094 C 41.96875 31.242188 44.441406 24.253906 44.441406 17.726562 C 44.441406 17.449219 44.417969 17.179688 44.410156 16.910156 C 46.179688 15.554688 47.761719 13.964844 49 12.109375 C 49.246094 11.75 49.21875 11.273438 48.933594 10.941406 C 48.65625 10.609375 48.183594 10.507812 47.792969 10.691406 C 47.292969 10.914062 46.710938 10.9375 46.191406 11.113281 C 46.878906 10.195312 47.46875 9.207031 47.820312 8.09375 C 47.941406 7.714844 47.808594 7.296875 47.496094 7.046875 C 47.183594 6.800781 46.746094 6.769531 46.402344 6.976562 C 44.753906 7.957031 42.925781 8.640625 41 9.0625 C 39.128906 7.308594 36.664062 6.132812 33.90625 6.132812 Z M 33.90625 8.066406 C 36.371094 8.066406 38.59375 9.117188 40.152344 10.78125 C 40.386719 11.023438 40.730469 11.125 41.058594 11.054688 C 42.320312 10.804688 43.515625 10.4375 44.683594 9.964844 C 44.011719 10.871094 43.179688 11.644531 42.207031 12.230469 C 41.765625 12.445312 41.558594 12.957031 41.71875 13.417969 C 41.878906 13.878906 42.363281 14.148438 42.839844 14.042969 C 43.808594 13.925781 44.667969 13.53125 45.585938 13.289062 C 44.761719 14.179688 43.855469 14.988281 42.871094 15.703125 C 42.601562 15.898438 42.457031 16.214844 42.480469 16.546875 C 42.492188 16.941406 42.507812 17.328125 42.507812 17.726562 C 42.507812 23.761719 40.191406 30.316406 35.777344 35.324219 C 31.363281 40.332031 24.878906 43.835938 16.398438 43.835938 C 12.542969 43.835938 8.90625 42.984375 5.621094 41.480469 C 9.695312 41.167969 13.453125 39.726562 16.488281 37.347656 C 16.804688 37.09375 16.929688 36.671875 16.800781 36.285156 C 16.671875 35.902344 16.316406 35.636719 15.914062 35.625 C 12.730469 35.570312 10.0625 33.714844 8.636719 31.097656 C 8.691406 31.097656 8.738281 31.097656 8.789062 31.097656 C 9.742188 31.097656 10.6875 30.976562 11.566406 30.734375 C 11.988281 30.609375 12.28125 30.21875 12.265625 29.777344 C 12.25 29.335938 11.9375 28.957031 11.507812 28.863281 C 8.070312 28.167969 5.492188 25.371094 4.894531 21.890625 C 5.867188 22.226562 6.863281 22.492188 7.945312 22.523438 C 8.386719 22.550781 8.785156 22.277344 8.921875 21.855469 C 9.058594 21.4375 8.890625 20.976562 8.519531 20.742188 C 6.222656 19.207031 4.714844 16.59375 4.714844 13.621094 C 4.714844 12.515625 5 11.507812 5.378906 10.539062 C 10.207031 15.84375 16.96875 19.363281 24.609375 19.746094 C 24.910156 19.761719 25.203125 19.636719 25.398438 19.40625 C 25.597656 19.171875 25.671875 18.863281 25.605469 18.570312 C 25.457031 17.945312 25.363281 17.28125 25.363281 16.609375 C 25.363281 11.875 29.171875 8.066406 33.90625 8.066406 Z M 33.90625 8.066406 "/>
</g>
</svg>
